<?xml version="1.0" encoding="utf-8"?>
<!-- Generator: Adobe Illustrator 16.0.3, SVG Export Plug-In . SVG Version: 6.00 Build 0)  -->
<!DOCTYPE svg PUBLIC "-//W3C//DTD SVG 1.1//EN" "http://www.w3.org/Graphics/SVG/1.1/DTD/svg11.dtd">
<svg version="1.1" id="Layer_1" xmlns="http://www.w3.org/2000/svg" xmlns:xlink="http://www.w3.org/1999/xlink" x="0px" y="0px"
	 width="156px" height="156px" viewBox="0 0 156 156" enable-background="new 0 0 156 156" xml:space="preserve">
<g>
	<path fill="#C6C6C6" d="M114.5,72.05c-0.21-0.05-0.33-0.2-0.54-0.229c-0.32-0.061-0.7-0.061-1.11-0.03l-2.8,0.26l-0.41-2.76
		c-1-6.74-3.3-12.66-6.529-17.51C99.25,58.25,88.8,62.87,76.53,62.87c-10.87,0-20.28-3.62-25.021-8.95
		c-2.53,4.42-4.33,9.6-5.18,15.37l-0.42,2.76l-2.79-0.26c-0.18-0.03-0.32-0.03-0.5-0.03c-0.21,0-0.44,0.03-0.62,0.061
		c-0.97,0.26-1.74,0.91-2.33,1.88c-1.26,1.939-1.7,5.149-0.97,8.33c1.12,4.45,4.07,7.16,6.39,7.45l1.94,0.26l0.53,1.89
		c4.18,15.51,15.95,31.2,30.38,31.2c14.42,0,26.189-15.72,30.43-31.2l0.53-1.89l1.949-0.26c2.32-0.29,5.261-2.94,6.381-7.45
		C118.32,77.62,117.03,73.17,114.5,72.05z"/>
	<path fill="#C6C6C6" d="M78,0C34.92,0,0,34.92,0,78s34.92,78,78,78s78-34.92,78-78S121.08,0,78,0z M122.97,83.45
		c-1.41,5.59-5.029,9.92-9.359,11.42c-5.03,16.6-18.07,33.84-35.61,33.84s-30.55-17.24-35.62-33.84c-4.32-1.5-7.94-5.83-9.36-11.4
		c-1.65-6.56,0.18-12.68,4.18-15.71c-0.67-2.42-1.09-4.95-1.09-7.54c0-18.189,18.22-32.93,40.621-32.93
		c22.399,0,40.56,14.71,40.56,32.93c0,2.15-0.26,4.24-0.76,6.271C122.06,68.64,124.92,75.76,122.97,83.45z"/>
</g>
</svg>
