<svg xmlns="http://www.w3.org/2000/svg" width="47.818" height="63.757" viewBox="0 0 47.818 63.757">
  <defs>
    <style>
      .cls-1 {
        fill: #63c29a;
      }
    </style>
  </defs>
  <path id="file-alt-solid" class="cls-1" d="M27.894,16.936V0H2.989A2.981,2.981,0,0,0,0,2.989v57.78a2.981,2.981,0,0,0,2.989,2.989H44.829a2.981,2.981,0,0,0,2.989-2.989V19.924H30.882A3,3,0,0,1,27.894,16.936Zm7.97,29.388a1.5,1.5,0,0,1-1.494,1.494H13.449a1.5,1.5,0,0,1-1.494-1.494v-1a1.5,1.5,0,0,1,1.494-1.494h20.92a1.5,1.5,0,0,1,1.494,1.494Zm0-7.97a1.5,1.5,0,0,1-1.494,1.494H13.449a1.5,1.5,0,0,1-1.494-1.494v-1a1.5,1.5,0,0,1,1.494-1.494h20.92a1.5,1.5,0,0,1,1.494,1.494Zm0-8.966v1a1.5,1.5,0,0,1-1.494,1.494H13.449a1.5,1.5,0,0,1-1.494-1.494v-1a1.5,1.5,0,0,1,1.494-1.494h20.92A1.5,1.5,0,0,1,35.864,29.388ZM47.818,15.18v.76H31.879V0h.76a2.986,2.986,0,0,1,2.117.872l12.191,12.2A2.979,2.979,0,0,1,47.818,15.18Z" transform="translate(0)"/>
</svg>
