<svg id="welcom" xmlns="http://www.w3.org/2000/svg" width="398.178" height="295.57" viewBox="0 0 398.178 295.57">
  <defs>
    <style>
      .cls-1 {
        fill: #009976;
      }

      .cls-2, .cls-6 {
        fill: #e3eaff;
      }

      .cls-3 {
        fill: #63c29a;
      }

      .cls-4 {
        fill: #c8d6f2;
      }

      .cls-5 {
        fill: #424261;
        opacity: 0.2;
      }

      .cls-6 {
        opacity: 0.21;
      }

      .cls-16, .cls-7 {
        fill: #fff;
      }

      .cls-7 {
        stroke: #707070;
      }

      .cls-8 {
        fill: #9570ee;
      }

      .cls-9 {
        fill: #f9fbfc;
      }

      .cls-10 {
        fill: #bb87ee;
      }

      .cls-11 {
        fill: #7f57ee;
      }

      .cls-12 {
        fill: #ced6ff;
      }

      .cls-13 {
        fill: #f7d3a9;
      }

      .cls-14 {
        fill: #544db8;
      }

      .cls-15 {
        fill: #ff8b40;
      }

      .cls-17 {
        fill: #6db8ff;
      }

      .cls-18 {
        fill: #cdd4ff;
      }

      .cls-19 {
        fill: #ffc240;
      }

      .cls-20 {
        fill: #90c240;
      }

      .cls-21 {
        fill: #eb4f24;
      }

      .cls-22 {
        fill: #fd4940;
      }

      .cls-23 {
        fill: #0cf;
      }

      .cls-24 {
        fill: #ff56a9;
      }

      .cls-25 {
        fill: #ffc359;
      }

      .cls-26 {
        fill: #ff4dd1;
      }

      .cls-27 {
        fill: #f79a74;
      }

      .cls-28 {
        fill: #ff4f72;
      }

      .cls-29 {
        fill: #fec800;
      }
    </style>
  </defs>
  <path id="Path_2" data-name="Path 2" class="cls-1" d="M494.317,332.636a33.507,33.507,0,0,0,3.177-55.059A125.439,125.439,0,0,1,511.3,261.225c2.416-2.412,4.87-4.691,7.349-6.871.99.838,1.964,1.7,2.91,2.6l8.249-5.039a8.954,8.954,0,0,1,12.309,2.971l8.172,13.37a8.958,8.958,0,0,1-2.97,12.309l-8.249,5.038a64.509,64.509,0,0,1,2.639,19.06l9.322,2.6a8.955,8.955,0,0,1,6.22,11.031l-4.212,15.094a8.953,8.953,0,0,1-11.031,6.217l-9.314-2.6a64.368,64.368,0,0,1-8.862,11.729l5.042,8.248A8.953,8.953,0,0,1,525.9,369.3l-13.371,8.173a8.951,8.951,0,0,1-12.308-2.97l-5.042-8.249a64.3,64.3,0,0,1-14.668,2.531,102.768,102.768,0,0,1-3.685-31.252A33.391,33.391,0,0,0,494.317,332.636Z" transform="translate(-159.406 -83.789)"/>
  <g id="Group_3" data-name="Group 3" transform="translate(0 62.894)">
    <g id="Group_2" data-name="Group 2">
      <path id="Path_3" data-name="Path 3" class="cls-2" d="M316.146,319.4H27.926a14.16,14.16,0,0,1-14.16-14.16V108.645a14.16,14.16,0,0,1,14.16-14.16h288.22a14.161,14.161,0,0,1,14.161,14.16V305.235A14.159,14.159,0,0,1,316.146,319.4Z" transform="translate(-4.603 -94.485)"/>
      <path id="Path_4" data-name="Path 4" class="cls-3" d="M317.008,317.924H31.244A11.226,11.226,0,0,1,20.021,306.7V110.154A11.223,11.223,0,0,1,31.244,98.931H317.008a11.22,11.22,0,0,1,11.223,11.223V306.7A11.225,11.225,0,0,1,317.008,317.924Z" transform="translate(-6.694 -95.972)"/>
      <path id="Path_5" data-name="Path 5" class="cls-1" d="M314.683,303.773H46.96a6.916,6.916,0,0,1-6.919-6.915V121.327a6.917,6.917,0,0,1,6.919-6.914H314.683a6.913,6.913,0,0,1,6.915,6.914V296.859A6.912,6.912,0,0,1,314.683,303.773Z" transform="translate(-13.388 -101.148)"/>
      <path id="Path_6" data-name="Path 6" class="cls-2" d="M1.478,414.847A11.713,11.713,0,0,0,0,420.468a11.869,11.869,0,0,0,11.869,11.869H323a11.778,11.778,0,0,0,10.391-17.49Z" transform="translate(0 -201.598)"/>
    </g>
    <path id="Path_7" data-name="Path 7" class="cls-4" d="M2.22,431.742a11.818,11.818,0,0,0,10.392,6.244H323.741a11.819,11.819,0,0,0,10.391-6.244Z" transform="translate(-0.742 -207.247)"/>
  </g>
  <path id="Path_8" data-name="Path 8" class="cls-5" d="M361.931,94.484H150.7V235.639a5.653,5.653,0,0,0,5.653,5.653H376.092V108.645A14.16,14.16,0,0,0,361.931,94.484Z" transform="translate(-50.388 -31.591)"/>
  <path id="Path_9" data-name="Path 9" class="cls-6" d="M403.994,226.7H168.034a5.65,5.65,0,0,1-5.653-5.649V75.52a5.653,5.653,0,0,1,5.653-5.653H403.994a5.652,5.652,0,0,1,5.653,5.653V221.053A5.649,5.649,0,0,1,403.994,226.7Z" transform="translate(-54.292 -23.36)"/>
  <path id="Path_10" data-name="Path 10" class="cls-7" d="M418.85,210.785H182.89a5.654,5.654,0,0,1-5.653-5.653V59.6a5.652,5.652,0,0,1,5.653-5.649H418.85A5.652,5.652,0,0,1,424.5,59.6V205.131A5.654,5.654,0,0,1,418.85,210.785Z" transform="translate(-59.259 -18.038)"/>
  <path id="Path_11" data-name="Path 11" class="cls-5" d="M94.282,197.883H69.2a3.532,3.532,0,0,1-3.534-3.533V167.857a3.532,3.532,0,0,1,3.534-3.533h25.08a3.531,3.531,0,0,1,3.529,3.533v26.494A3.532,3.532,0,0,1,94.282,197.883Z" transform="translate(-21.956 -54.942)"/>
  <path id="Path_12" data-name="Path 12" class="cls-3" d="M91.494,271.115H66.414a3.534,3.534,0,0,1-3.533-3.533V241.088a3.533,3.533,0,0,1,3.533-3.534H91.495a3.532,3.532,0,0,1,3.533,3.534v26.494A3.535,3.535,0,0,1,91.494,271.115Z" transform="translate(-21.024 -79.426)"/>
  <path id="Path_13" data-name="Path 13" class="cls-3" d="M91.494,342.753H66.414a3.531,3.531,0,0,1-3.533-3.533V312.727a3.531,3.531,0,0,1,3.533-3.529H91.495a3.531,3.531,0,0,1,3.533,3.529V339.22A3.532,3.532,0,0,1,91.494,342.753Z" transform="translate(-21.024 -103.38)"/>
  <g id="Group_4" data-name="Group 4" transform="translate(49.628 211.26)">
    <path id="Path_14" data-name="Path 14" class="cls-8" d="M89.879,325.015a7.641,7.641,0,0,0-15.282,0s-1.074,8.092,7.641,14.528C90.957,333.107,89.879,325.015,89.879,325.015Z" transform="translate(-74.555 -317.374)"/>
    <path id="Path_15" data-name="Path 15" class="cls-9" d="M83.768,331.586a5.534,5.534,0,1,1,5.066-5.066A5.538,5.538,0,0,1,83.768,331.586Z" transform="translate(-75.634 -318.432)"/>
  </g>
  <g id="Group_11" data-name="Group 11" transform="translate(46.592 163.894)">
    <g id="Group_6" data-name="Group 6">
      <g id="Group_5" data-name="Group 5">
        <path id="Path_16" data-name="Path 16" class="cls-8" d="M91.133,256.789a10.57,10.57,0,1,1-10.567-10.573A10.57,10.57,0,0,1,91.133,256.789Z" transform="translate(-69.994 -246.216)"/>
        <path id="Path_17" data-name="Path 17" class="cls-9" d="M90.116,257.818a8.526,8.526,0,1,1-8.524-8.524A8.524,8.524,0,0,1,90.116,257.818Z" transform="translate(-71.02 -247.245)"/>
        <path id="Path_18" data-name="Path 18" class="cls-10" d="M81.434,248.951a8.531,8.531,0,0,1,8.172,6.092.334.334,0,0,0,.323.248h0a.342.342,0,0,0,.331-.435,9.208,9.208,0,0,0-17.654,0,.337.337,0,0,0,.327.435h0a.341.341,0,0,0,.327-.248A8.523,8.523,0,0,1,81.434,248.951Z" transform="translate(-70.862 -246.902)"/>
        <path id="Path_19" data-name="Path 19" class="cls-11" d="M90.063,262.506a1.016,1.016,0,0,0-1.01.874,8.523,8.523,0,0,1-16.892,0,1.016,1.016,0,0,0-1.01-.874h0a1.026,1.026,0,0,0-1.018,1.15,10.57,10.57,0,0,0,20.948,0,1.026,1.026,0,0,0-1.018-1.15Z" transform="translate(-70.038 -251.663)"/>
        <path id="Path_20" data-name="Path 20" class="cls-9" d="M90.116,257.818a8.526,8.526,0,1,1-8.524-8.524A8.524,8.524,0,0,1,90.116,257.818Z" transform="translate(-71.02 -247.245)"/>
        <path id="Path_21" data-name="Path 21" class="cls-8" d="M89.837,266.231a.347.347,0,0,0-.323.227,8.525,8.525,0,0,1-15.974,0,.348.348,0,0,0-.324-.227h0a.34.34,0,0,0-.32.459,9.211,9.211,0,0,0,17.263,0,.344.344,0,0,0-.324-.459Z" transform="translate(-70.957 -252.908)"/>
      </g>
      <path id="Path_22" data-name="Path 22" class="cls-8" d="M85.633,259.8h0a.411.411,0,0,1-.412-.411v-6a.407.407,0,0,1,.412-.407h0a.407.407,0,0,1,.407.407v6A.41.41,0,0,1,85.633,259.8Z" transform="translate(-75.085 -248.478)"/>
      <path id="Path_23" data-name="Path 23" class="cls-8" d="M85.346,262.194h0a.409.409,0,0,1,.575-.047l3.705,3.129a.409.409,0,0,1,.047.575h0a.407.407,0,0,1-.578.049l-3.7-3.127A.411.411,0,0,1,85.346,262.194Z" transform="translate(-75.094 -251.51)"/>
    </g>
    <g id="Group_7" data-name="Group 7" transform="translate(10.332 2.627)">
      <rect id="Rectangle_4" data-name="Rectangle 4" class="cls-12" width="0.307" height="0.818"/>
      <rect id="Rectangle_5" data-name="Rectangle 5" class="cls-12" width="0.307" height="0.818" transform="translate(0 14.936)"/>
    </g>
    <g id="Group_8" data-name="Group 8" transform="translate(2.607 10.348)">
      <rect id="Rectangle_6" data-name="Rectangle 6" class="cls-12" width="0.819" height="0.307"/>
      <rect id="Rectangle_7" data-name="Rectangle 7" class="cls-12" width="0.818" height="0.307" transform="translate(14.935)"/>
    </g>
    <g id="Group_9" data-name="Group 9" transform="translate(4.807 4.823)">
      <path id="Path_24" data-name="Path 24" class="cls-12" d="M78.009,254.04l-.216.22-.578-.578.215-.22Z" transform="translate(-77.215 -253.461)"/>
      <path id="Path_25" data-name="Path 25" class="cls-12" d="M93.877,269.91l-.22.216-.579-.578.22-.216Z" transform="translate(-82.519 -258.767)"/>
    </g>
    <g id="Group_10" data-name="Group 10" transform="translate(4.818 4.823)">
      <rect id="Rectangle_8" data-name="Rectangle 8" class="cls-12" width="0.305" height="0.818" transform="translate(0.579 10.571) rotate(45.041)"/>
      <path id="Path_26" data-name="Path 26" class="cls-12" d="M93.657,253.461l.22.22-.578.578-.22-.22Z" transform="translate(-82.53 -253.461)"/>
    </g>
  </g>
  <g id="Group_18" data-name="Group 18" transform="translate(3.33 108.325)">
    <path id="Path_27" data-name="Path 27" class="cls-3" d="M91.494,196.29H66.414a3.532,3.532,0,0,1-3.533-3.533V166.266a3.531,3.531,0,0,1,3.533-3.531H91.495a3.531,3.531,0,0,1,3.533,3.531v26.492A3.532,3.532,0,0,1,91.494,196.29Z" transform="translate(-24.354 -162.735)"/>
    <g id="Group_17" data-name="Group 17" transform="translate(0 17.662)">
      <path id="Path_28" data-name="Path 28" class="cls-13" d="M59.7,201.721l2.651-1.857,1.19-4.371-1.322-.264-.794,1.59.794-7.55-1.325.264-1.326,7.286-1.589,3.445,1.457.926" transform="translate(-22.713 -189.268)"/>
      <path id="Path_29" data-name="Path 29" class="cls-13" d="M84.106,216.231l.355-3.178,3.885-3.884.882,1.233-1.414,1.589,7.423-1.765v1.589l-6.891,2.651-1.413,2.472Z" transform="translate(-31.45 -195.922)"/>
      <g id="Group_16" data-name="Group 16" transform="translate(0 9.778)">
        <g id="Group_15" data-name="Group 15">
          <path id="Path_30" data-name="Path 30" class="cls-14" d="M11.456,337.856,25.9,408.532l10.931-1.17-7.417-2.735,2.734-.779-3.9-65.993Z" transform="translate(-7.16 -248.726)"/>
          <path id="Path_31" data-name="Path 31" class="cls-14" d="M36.457,334.131S54.81,351.31,52.075,372.006c-3.126,16.4-9.762,22.649-9.762,22.649l-1.952-.392,3.026,8L34.6,392.9s10.836-14.936,4.1-30.458-21.379-21.088-21.379-21.088,12.592-11.423,13.47-11.131A61.393,61.393,0,0,1,36.457,334.131Z" transform="translate(-9.121 -246.172)"/>
          <g id="Group_14" data-name="Group 14">
            <path id="Path_32" data-name="Path 32" class="cls-15" d="M40.147,203.957S9.981,240.567,6.468,247.889c0,0-1.466,2.635-1.466,10.248s2.635,35.732,2.635,35.732l30.753,1.758s-9.96-34.267-10.252-35.145-5.27-6.153-9.957-7.322l25.771-46.567Z" transform="translate(-5.002 -203.957)"/>
            <g id="Group_13" data-name="Group 13" transform="translate(7.912 27.765)">
              <path id="Path_33" data-name="Path 33" class="cls-13" d="M25.838,271.27s1.282,3.8,1.99,6.1c0,0-6.278-.131-8.486-3.05l2.342-5.614Z" transform="translate(-17.709 -253.371)"/>
              <g id="Group_12" data-name="Group 12">
                <path id="Path_34" data-name="Path 34" class="cls-13" d="M29.792,251.686s1.857,10.811,0,13.271-8.219-1.721-10.875-5.653-3.182-12.776,1.327-13.514A8.334,8.334,0,0,1,29.792,251.686Z" transform="translate(-16.888 -245.668)"/>
              </g>
            </g>
            <path id="Path_35" data-name="Path 35" class="cls-15" d="M31.371,262.342S55.556,247.131,57.5,244.009s7.413-26.331,7.413-26.331l4.68,1.17s-2.731,25.938-3.509,28.669S41.511,275.6,36.05,275.6,28.641,268.582,31.371,262.342Z" transform="translate(-13.409 -208.545)"/>
          </g>
        </g>
        <path id="Path_36" data-name="Path 36" class="cls-14" d="M15.484,244.8a9.16,9.16,0,0,1,8.831-3.354c5.649,1.058,7.063-.176,7.063-.176s-1.234,6.181-5.122,7.594-4.944,1.058-4.944,1.058a13.171,13.171,0,0,1,2.649,3.709c.531,1.589-1.764-1.94-2.649-.707s0,3.889,1.767,3.709.706,1.237,0,2.651-1.767,3.178-2.826,2.647a12.47,12.47,0,0,1-6.181-7.062C12.657,250.456,12.3,246.216,15.484,244.8Z" transform="translate(-7.687 -216.434)"/>
      </g>
    </g>
    <rect id="Rectangle_9" data-name="Rectangle 9" class="cls-16" width="19.964" height="15.889" transform="translate(44.634 11.158)"/>
    <path id="Path_37" data-name="Path 37" class="cls-8" d="M91.475,179.228H72.52a.538.538,0,0,1-.535-.539v-1.609a2.142,2.142,0,0,1,2.144-2.144h2.144V172.61a.539.539,0,0,1,.539-.535H78.6a.535.535,0,0,1,.535.535v2.327h5.726V172.61a.535.535,0,0,1,.535-.535h1.793a.533.533,0,0,1,.531.535v2.327h2.148a2.146,2.146,0,0,1,2.148,2.144v1.609A.544.544,0,0,1,91.475,179.228ZM72.52,180.657H91.475a.541.541,0,0,1,.539.535v11.626a2.149,2.149,0,0,1-2.148,2.148H74.129a2.146,2.146,0,0,1-2.144-2.148V181.192A.537.537,0,0,1,72.52,180.657Zm5.185,9.119a.535.535,0,0,0-.539-.531H75.382a.538.538,0,0,0-.539.531v1.789a.539.539,0,0,0,.539.539h1.785a.537.537,0,0,0,.539-.539Zm0-5.721a.536.536,0,0,0-.539-.535H75.382a.539.539,0,0,0-.539.535v1.789a.542.542,0,0,0,.539.539h1.785a.54.54,0,0,0,.539-.539Zm5.725,5.721a.537.537,0,0,0-.539-.531H81.1a.534.534,0,0,0-.535.531v1.789a.536.536,0,0,0,.535.539h1.789a.539.539,0,0,0,.539-.539Zm0-5.721a.538.538,0,0,0-.539-.535H81.1a.535.535,0,0,0-.535.535v1.789a.539.539,0,0,0,.535.539h1.789a.542.542,0,0,0,.539-.539Zm5.721,5.721a.535.535,0,0,0-.539-.531H86.828a.537.537,0,0,0-.539.531v1.789a.539.539,0,0,0,.539.539h1.785a.537.537,0,0,0,.539-.539Zm0-5.721a.536.536,0,0,0-.539-.535H86.828a.539.539,0,0,0-.539.535v1.789a.542.542,0,0,0,.539.539h1.785a.54.54,0,0,0,.539-.539Z" transform="translate(-27.398 -165.858)"/>
  </g>
  <path id="Path_38" data-name="Path 38" class="cls-2" d="M271.59,203.668h-68.88a2.649,2.649,0,0,1-2.651-2.647V81.272a2.649,2.649,0,0,1,2.651-2.649h68.88a2.648,2.648,0,0,1,2.647,2.649V201.021A2.647,2.647,0,0,1,271.59,203.668Z" transform="translate(-66.889 -26.288)"/>
  <path id="Path_39" data-name="Path 39" class="cls-17" d="M265.082,104.345h-43.8a2.121,2.121,0,0,1-2.12-2.12V95.866a2.118,2.118,0,0,1,2.12-2.118h43.8a2.119,2.119,0,0,1,2.12,2.118v6.358A2.122,2.122,0,0,1,265.082,104.345Z" transform="translate(-73.276 -31.345)"/>
  <path id="Path_40" data-name="Path 40" class="cls-17" d="M236.476,194.072h-9.537a4.062,4.062,0,0,1-4.064-4.06h0a4.063,4.063,0,0,1,4.064-4.06h9.537a4.059,4.059,0,0,1,4.06,4.06h0A4.059,4.059,0,0,1,236.476,194.072Z" transform="translate(-74.518 -62.173)"/>
  <path id="Path_41" data-name="Path 41" class="cls-8" d="M277.872,194.072H268.33a4.058,4.058,0,0,1-4.061-4.06h0a4.06,4.06,0,0,1,4.061-4.06h9.541a4.062,4.062,0,0,1,4.06,4.06h0A4.061,4.061,0,0,1,277.872,194.072Z" transform="translate(-88.358 -62.173)"/>
  <rect id="Rectangle_10" data-name="Rectangle 10" class="cls-9" width="51.569" height="8.124" transform="translate(144.827 83.596)"/>
  <rect id="Rectangle_11" data-name="Rectangle 11" class="cls-9" width="51.569" height="8.125" transform="translate(144.827 97.373)"/>
  <rect id="Rectangle_12" data-name="Rectangle 12" class="cls-18" width="29.671" height="1.854" transform="translate(155.954 110.621)"/>
  <path id="Path_42" data-name="Path 42" class="cls-8" d="M489.378,221.34H396.655a10.331,10.331,0,0,1-10.332-10.332h0a10.331,10.331,0,0,1,10.332-10.332h92.723a10.334,10.334,0,0,1,10.332,10.332h0A10.334,10.334,0,0,1,489.378,221.34Z" transform="translate(-129.167 -67.096)"/>
  <g id="Group_19" data-name="Group 19" transform="translate(213.707 49.686)">
    <path id="Path_43" data-name="Path 43" class="cls-2" d="M387.283,91.6H329.526a8.476,8.476,0,0,1-8.476-8.476h0a8.478,8.478,0,0,1,8.476-8.48h57.757a8.478,8.478,0,0,1,8.475,8.48h0A8.475,8.475,0,0,1,387.283,91.6Z" transform="translate(-321.05 -74.642)"/>
    <path id="Path_44" data-name="Path 44" class="cls-19" d="M351.819,86.048a2.649,2.649,0,1,1-2.65-2.651A2.648,2.648,0,0,1,351.819,86.048Z" transform="translate(-329.567 -77.569)"/>
    <path id="Path_45" data-name="Path 45" class="cls-20" d="M379.15,86.048A2.651,2.651,0,1,1,376.5,83.4,2.649,2.649,0,0,1,379.15,86.048Z" transform="translate(-338.703 -77.569)"/>
    <path id="Path_46" data-name="Path 46" class="cls-21" d="M404.353,86.048a2.649,2.649,0,1,1-2.647-2.651A2.648,2.648,0,0,1,404.353,86.048Z" transform="translate(-347.131 -77.569)"/>
  </g>
  <g id="Group_20" data-name="Group 20" transform="translate(235.664 83.999)">
    <path id="Path_47" data-name="Path 47" class="cls-2" d="M406.7,163.527H358.217a4.182,4.182,0,0,1-4.181-4.18V130.371a4.18,4.18,0,0,1,4.181-4.18H406.7a4.18,4.18,0,0,1,4.18,4.18v28.976A4.181,4.181,0,0,1,406.7,163.527Z" transform="translate(-354.036 -126.191)"/>
    <path id="Path_48" data-name="Path 48" class="cls-22" d="M385.006,146.189h-.112a1.525,1.525,0,0,1-.727-.188l-21.91-12.172a1.494,1.494,0,0,1,1.454-2.611l21.24,11.8,21.239-11.8a1.493,1.493,0,1,1,1.449,2.611L385.729,146A1.5,1.5,0,0,1,385.006,146.189Z" transform="translate(-356.528 -127.808)"/>
  </g>
  <path id="Path_49" data-name="Path 49" class="cls-1" d="M525.517,130.755H462.465a3.71,3.71,0,0,1-3.709-3.71V43.33a3.71,3.71,0,0,1,3.709-3.709h63.052a3.709,3.709,0,0,1,3.708,3.709v83.715A3.709,3.709,0,0,1,525.517,130.755Z" transform="translate(-153.385 -13.247)"/>
  <g id="Group_21" data-name="Group 21" transform="translate(315.967 36.775)">
    <path id="Path_50" data-name="Path 50" class="cls-23" d="M479.824,57.062h-4.7c-.248,0-.451-.407-.451-.91h0c0-.5.2-.906.451-.906h4.7c.248,0,.451.407.451.906h0C480.275,56.655,480.071,57.062,479.824,57.062Z" transform="translate(-474.673 -55.246)"/>
    <path id="Path_51" data-name="Path 51" class="cls-23" d="M512.361,57.062H485.5c-.248,0-.451-.407-.451-.91h0c0-.5.2-.906.451-.906h26.86c.248,0,.452.407.452.906h0C512.812,56.655,512.609,57.062,512.361,57.062Z" transform="translate(-478.143 -55.246)"/>
    <path id="Path_52" data-name="Path 52" class="cls-24" d="M494.069,62.7H485.5c-.248,0-.451-.407-.451-.911h0c0-.5.2-.906.451-.906h8.568c.252,0,.451.407.451.906h0C494.519,62.292,494.321,62.7,494.069,62.7Z" transform="translate(-478.143 -57.131)"/>
    <path id="Path_53" data-name="Path 53" class="cls-2" d="M513.341,62.7H500.992c-.247,0-.451-.407-.451-.911h0c0-.5.2-.906.451-.906h12.349c.248,0,.451.407.451.906h0C513.792,62.292,513.589,62.7,513.341,62.7Z" transform="translate(-483.322 -57.131)"/>
    <path id="Path_54" data-name="Path 54" class="cls-2" d="M512.361,90.145H485.5c-.248,0-.451-.407-.451-.906h0c0-.5.2-.91.451-.91h26.86c.248,0,.452.407.452.91h0C512.812,89.738,512.609,90.145,512.361,90.145Z" transform="translate(-478.143 -66.307)"/>
    <path id="Path_55" data-name="Path 55" class="cls-23" d="M479.824,95.783h-4.7c-.248,0-.451-.407-.451-.908h0c0-.5.2-.909.451-.909h4.7c.248,0,.451.407.451.909h0C480.275,95.375,480.071,95.783,479.824,95.783Z" transform="translate(-474.673 -68.192)"/>
    <path id="Path_56" data-name="Path 56" class="cls-2" d="M494.069,95.783H485.5c-.248,0-.451-.407-.451-.908h0c0-.5.2-.909.451-.909h8.568c.252,0,.451.407.451.909h0C494.519,95.375,494.321,95.783,494.069,95.783Z" transform="translate(-478.143 -68.192)"/>
    <path id="Path_57" data-name="Path 57" class="cls-24" d="M513.341,95.783H500.992c-.247,0-.451-.407-.451-.908h0c0-.5.2-.909.451-.909h12.349c.248,0,.451.407.451.909h0C513.792,95.375,513.589,95.783,513.341,95.783Z" transform="translate(-483.322 -68.192)"/>
    <path id="Path_58" data-name="Path 58" class="cls-24" d="M519.021,68.335H485.5c-.247,0-.45-.4-.45-.908h0c0-.5.2-.907.45-.907h33.52c.252,0,.451.405.451.907h0C519.473,67.93,519.273,68.335,519.021,68.335Z" transform="translate(-478.143 -59.015)"/>
    <path id="Path_59" data-name="Path 59" class="cls-23" d="M521.368,73.973h-7.8a.479.479,0,0,1-.479-.477v-.86a.478.478,0,0,1,.479-.477h7.8a.475.475,0,0,1,.479.477v.86A.475.475,0,0,1,521.368,73.973Z" transform="translate(-487.517 -60.901)"/>
    <path id="Path_60" data-name="Path 60" class="cls-2" d="M496.636,73.973H485.5c-.248,0-.451-.4-.451-.908h0c0-.5.2-.907.451-.907h11.135c.252,0,.451.4.451.907h0C497.087,73.568,496.887,73.973,496.636,73.973Z" transform="translate(-478.143 -60.901)"/>
    <path id="Path_61" data-name="Path 61" class="cls-23" d="M508.91,73.973h-4.416c-.247,0-.451-.4-.451-.908h0c0-.5.2-.907.451-.907h4.416c.252,0,.455.4.455.907h0C509.366,73.568,509.162,73.973,508.91,73.973Z" transform="translate(-484.493 -60.901)"/>
    <path id="Path_62" data-name="Path 62" class="cls-2" d="M479.824,79.421h-4.7c-.248,0-.451-.407-.451-.906h0c0-.5.2-.91.451-.91h4.7c.248,0,.451.407.451.91h0C480.275,79.014,480.071,79.421,479.824,79.421Z" transform="translate(-474.673 -62.722)"/>
    <path id="Path_63" data-name="Path 63" class="cls-2" d="M519.021,79.421H485.5c-.247,0-.45-.407-.45-.906h0c0-.5.2-.91.45-.91h33.52c.252,0,.451.407.451.91h0C519.473,79.014,519.273,79.421,519.021,79.421Z" transform="translate(-478.143 -62.722)"/>
    <path id="Path_64" data-name="Path 64" class="cls-2" d="M479.824,101h-4.7c-.248,0-.451-.405-.451-.908h0c0-.5.2-.907.451-.907h4.7c.248,0,.451.405.451.907h0C480.275,100.6,480.071,101,479.824,101Z" transform="translate(-474.673 -69.939)"/>
    <path id="Path_65" data-name="Path 65" class="cls-2" d="M524.646,101H513.651a.562.562,0,0,1-.563-.563V99.75a.562.562,0,0,1,.563-.56h10.995a.562.562,0,0,1,.564.56v.691A.563.563,0,0,1,524.646,101Z" transform="translate(-487.517 -69.939)"/>
    <path id="Path_66" data-name="Path 66" class="cls-2" d="M496.636,101H485.5c-.248,0-.451-.405-.451-.908h0c0-.5.2-.907.451-.907h11.135c.252,0,.451.405.451.907h0C497.087,100.6,496.887,101,496.636,101Z" transform="translate(-478.143 -69.939)"/>
    <path id="Path_67" data-name="Path 67" class="cls-2" d="M508.91,101h-4.416c-.247,0-.451-.405-.451-.908h0c0-.5.2-.907.451-.907h4.416c.252,0,.455.405.455.907h0C509.366,100.6,509.162,101,508.91,101Z" transform="translate(-484.493 -69.939)"/>
    <path id="Path_68" data-name="Path 68" class="cls-25" d="M479.824,106.453h-4.7c-.248,0-.451-.407-.451-.906h0c0-.5.2-.911.451-.911h4.7c.248,0,.451.407.451.911h0C480.275,106.045,480.071,106.453,479.824,106.453Z" transform="translate(-474.673 -71.759)"/>
    <path id="Path_69" data-name="Path 69" class="cls-23" d="M491.306,106.453H485.5c-.248,0-.451-.407-.451-.906h0c0-.5.2-.911.451-.911h5.805c.247,0,.451.407.451.911h0C491.757,106.045,491.553,106.453,491.306,106.453Z" transform="translate(-478.143 -71.759)"/>
    <path id="Path_70" data-name="Path 70" class="cls-23" d="M475.125,85.059c-.248,0-.451-.408-.451-.907h0c0-.5.2-.91.451-.91h4.7c.248,0,.451.407.451.91h0c0,.5-.2.907-.451.907" transform="translate(-474.673 -64.606)"/>
    <path id="Path_71" data-name="Path 71" class="cls-2" d="M526.184,85.059h-12.5a.6.6,0,0,1-.6-.6v-.618a.6.6,0,0,1,.6-.6h12.5a.6.6,0,0,1,.6.6v.618A.6.6,0,0,1,526.184,85.059Z" transform="translate(-487.518 -64.607)"/>
    <path id="Path_72" data-name="Path 72" class="cls-25" d="M496.636,85.059H485.5c-.248,0-.451-.408-.451-.907h0c0-.5.2-.91.451-.91h11.135c.252,0,.451.407.451.91h0C497.087,84.651,496.887,85.059,496.636,85.059Z" transform="translate(-478.143 -64.606)"/>
    <path id="Path_73" data-name="Path 73" class="cls-25" d="M508.91,85.059h-4.416c-.247,0-.451-.408-.451-.907h0c0-.5.2-.91.451-.91h4.416c.252,0,.455.407.455.91h0C509.366,84.651,509.162,85.059,508.91,85.059Z" transform="translate(-484.493 -64.606)"/>
    <path id="Path_74" data-name="Path 74" class="cls-2" d="M512.361,112.25H485.5c-.248,0-.451-.407-.451-.909h0c0-.5.2-.906.451-.906h26.86c.248,0,.452.405.452.906h0C512.812,111.843,512.609,112.25,512.361,112.25Z" transform="translate(-478.143 -73.698)"/>
    <path id="Path_75" data-name="Path 75" class="cls-2" d="M494.069,117.885H485.5c-.248,0-.451-.4-.451-.906h0c0-.5.2-.909.451-.909h8.568c.252,0,.451.405.451.909h0C494.519,117.479,494.321,117.885,494.069,117.885Z" transform="translate(-478.143 -75.582)"/>
    <path id="Path_76" data-name="Path 76" class="cls-2" d="M513.341,117.885H500.992c-.247,0-.451-.4-.451-.906h0c0-.5.2-.909.451-.909h12.349c.248,0,.451.405.451.909h0C513.792,117.479,513.589,117.885,513.341,117.885Z" transform="translate(-483.322 -75.582)"/>
    <path id="Path_77" data-name="Path 77" class="cls-2" d="M512.361,145.335H485.5c-.248,0-.451-.407-.451-.91h0c0-.5.2-.907.451-.907h26.86c.248,0,.452.408.452.907h0C512.812,144.927,512.609,145.335,512.361,145.335Z" transform="translate(-478.143 -84.76)"/>
    <path id="Path_78" data-name="Path 78" class="cls-24" d="M479.824,150.973h-4.7c-.248,0-.451-.407-.451-.91h0c0-.5.2-.907.451-.907h4.7c.248,0,.451.408.451.907h0C480.275,150.566,480.071,150.973,479.824,150.973Z" transform="translate(-474.673 -86.645)"/>
    <path id="Path_79" data-name="Path 79" class="cls-23" d="M494.069,150.973H485.5c-.248,0-.451-.407-.451-.91h0c0-.5.2-.907.451-.907h8.568c.252,0,.451.408.451.907h0C494.519,150.566,494.321,150.973,494.069,150.973Z" transform="translate(-478.143 -86.645)"/>
    <path id="Path_80" data-name="Path 80" class="cls-2" d="M513.341,150.973H500.992c-.247,0-.451-.407-.451-.91h0c0-.5.2-.907.451-.907h12.349c.248,0,.451.408.451.907h0C513.792,150.566,513.589,150.973,513.341,150.973Z" transform="translate(-483.322 -86.645)"/>
    <path id="Path_81" data-name="Path 81" class="cls-24" d="M479.824,123.522h-4.7c-.248,0-.451-.4-.451-.906h0c0-.5.2-.909.451-.909h4.7c.248,0,.451.406.451.909h0C480.275,123.117,480.071,123.522,479.824,123.522Z" transform="translate(-474.673 -77.467)"/>
    <path id="Path_82" data-name="Path 82" class="cls-24" d="M509.48,123.522H485.6a.544.544,0,0,1-.547-.545v-.725a.546.546,0,0,1,.547-.545H509.48a.549.549,0,0,1,.547.545v.725A.547.547,0,0,1,509.48,123.522Z" transform="translate(-478.143 -77.467)"/>
    <path id="Path_83" data-name="Path 83" class="cls-2" d="M479.824,129.161h-4.7c-.248,0-.451-.4-.451-.907h0c0-.5.2-.908.451-.908h4.7c.248,0,.451.405.451.908h0C480.275,128.755,480.071,129.161,479.824,129.161Z" transform="translate(-474.673 -79.353)"/>
    <path id="Path_84" data-name="Path 84" class="cls-2" d="M496.636,129.161H485.5c-.248,0-.451-.4-.451-.907h0c0-.5.2-.908.451-.908h11.135c.252,0,.451.405.451.908h0C497.087,128.755,496.887,129.161,496.636,129.161Z" transform="translate(-478.143 -79.353)"/>
    <path id="Path_85" data-name="Path 85" class="cls-2" d="M508.91,129.161h-4.416c-.247,0-.451-.4-.451-.907h0c0-.5.2-.908.451-.908h4.416c.252,0,.455.405.455.908h0C509.366,128.755,509.162,129.161,508.91,129.161Z" transform="translate(-484.493 -79.353)"/>
    <path id="Path_86" data-name="Path 86" class="cls-2" d="M479.824,134.612h-4.7c-.248,0-.451-.407-.451-.909h0c0-.5.2-.908.451-.908h4.7c.248,0,.451.407.451.908h0C480.275,134.2,480.071,134.612,479.824,134.612Z" transform="translate(-474.673 -81.174)"/>
    <path id="Path_87" data-name="Path 87" class="cls-2" d="M515.887,134.612H485.661a.614.614,0,0,1-.61-.613v-.591a.613.613,0,0,1,.61-.612h30.226a.613.613,0,0,1,.61.612V134A.613.613,0,0,1,515.887,134.612Z" transform="translate(-478.143 -81.174)"/>
    <path id="Path_88" data-name="Path 88" class="cls-2" d="M479.824,156.191h-4.7c-.248,0-.451-.407-.451-.906h0c0-.5.2-.911.451-.911h4.7c.248,0,.451.408.451.911h0C480.275,155.784,480.071,156.191,479.824,156.191Z" transform="translate(-474.673 -88.389)"/>
    <path id="Path_89" data-name="Path 89" class="cls-2" d="M528.359,156.191H513.539c-.248,0-.451-.407-.451-.906h0c0-.5.2-.911.451-.911h14.819c.252,0,.451.408.451.911h0C528.81,155.784,528.611,156.191,528.359,156.191Z" transform="translate(-487.517 -88.389)"/>
    <path id="Path_90" data-name="Path 90" class="cls-2" d="M496.636,156.191H485.5c-.248,0-.451-.407-.451-.906h0c0-.5.2-.911.451-.911h11.135c.252,0,.451.408.451.911h0C497.087,155.784,496.887,156.191,496.636,156.191Z" transform="translate(-478.143 -88.389)"/>
    <path id="Path_91" data-name="Path 91" class="cls-2" d="M508.91,156.191h-4.416c-.247,0-.451-.407-.451-.906h0c0-.5.2-.911.451-.911h4.416c.252,0,.455.408.455.911h0C509.366,155.784,509.162,156.191,508.91,156.191Z" transform="translate(-484.493 -88.389)"/>
    <path id="Path_92" data-name="Path 92" class="cls-25" d="M505.328,161.642H485.55a.5.5,0,0,1-.5-.5v-.818a.5.5,0,0,1,.5-.5h19.779a.5.5,0,0,1,.5.5v.818A.5.5,0,0,1,505.328,161.642Z" transform="translate(-478.143 -90.212)"/>
    <path id="Path_93" data-name="Path 93" class="cls-24" d="M526.974,140.249H513.7a.616.616,0,0,1-.615-.615v-.586a.615.615,0,0,1,.615-.615h13.271a.615.615,0,0,1,.614.615v.586A.615.615,0,0,1,526.974,140.249Z" transform="translate(-487.517 -83.059)"/>
    <path id="Path_94" data-name="Path 94" class="cls-25" d="M496.636,140.249H485.5c-.248,0-.451-.407-.451-.909h0c0-.5.2-.908.451-.908h11.135c.252,0,.451.407.451.908h0C497.087,139.842,496.887,140.249,496.636,140.249Z" transform="translate(-478.143 -83.059)"/>
    <path id="Path_95" data-name="Path 95" class="cls-25" d="M508.91,140.249h-4.416c-.247,0-.451-.407-.451-.909h0c0-.5.2-.908.451-.908h4.416c.252,0,.455.407.455.908h0C509.366,139.842,509.162,140.249,508.91,140.249Z" transform="translate(-484.493 -83.059)"/>
  </g>
  <g id="Group_25" data-name="Group 25" transform="translate(355.324 13.418)">
    <path id="Path_96" data-name="Path 96" class="cls-26" d="M563.47,34.994a14.836,14.836,0,1,1-14.835-14.836A14.836,14.836,0,0,1,563.47,34.994Z" transform="translate(-533.799 -20.158)"/>
    <g id="Group_24" data-name="Group 24" transform="translate(5.339 11.251)">
      <g id="Group_22" data-name="Group 22">
        <path id="Path_97" data-name="Path 97" class="cls-9" d="M550.242,39.255l-5.893,2.159,5.893,2.141v2.212l-8.423-3.2v-2.3l8.423-3.2Z" transform="translate(-541.819 -37.06)"/>
      </g>
      <g id="Group_23" data-name="Group 23" transform="translate(10.348 0)">
        <path id="Path_98" data-name="Path 98" class="cls-9" d="M557.364,37.06l8.423,3.2v2.3l-8.423,3.2V43.555l5.893-2.141-5.893-2.158v-2.2Z" transform="translate(-557.364 -37.06)"/>
      </g>
    </g>
  </g>
  <g id="Group_27" data-name="Group 27" transform="translate(255.934 262.318)">
    <path id="Path_99" data-name="Path 99" class="cls-19" d="M416.674,410.17a16.093,16.093,0,1,1-16.093-16.093A16.092,16.092,0,0,1,416.674,410.17Z" transform="translate(-384.487 -394.077)"/>
    <g id="Group_26" data-name="Group 26" transform="translate(7.595 7.586)">
      <path id="Path_100" data-name="Path 100" class="cls-16" d="M412.892,413.061a7.593,7.593,0,0,1-.479,2.743,4.555,4.555,0,0,1-1.354,1.948,3.109,3.109,0,0,1-2.028.711,2.528,2.528,0,0,1-1.365-.371,2.1,2.1,0,0,1-.85-.974h-.168a3.566,3.566,0,0,1-2.863,1.345,3.832,3.832,0,0,1-2.9-1.11,4.208,4.208,0,0,1-1.062-3.035,4.676,4.676,0,0,1,1.394-3.537,5.033,5.033,0,0,1,3.645-1.341,12.387,12.387,0,0,1,1.972.171,10.642,10.642,0,0,1,1.773.411l-.24,5.086q0,1.449.791,1.45c.443,0,.8-.328,1.062-.974a6.872,6.872,0,0,0,.4-2.547,6.093,6.093,0,0,0-.7-2.958,4.7,4.7,0,0,0-1.96-1.96,6.018,6.018,0,0,0-2.886-.68,7.393,7.393,0,0,0-3.653.863,5.8,5.8,0,0,0-2.38,2.5,8.2,8.2,0,0,0-.826,3.76,5.968,5.968,0,0,0,1.533,4.408,6.044,6.044,0,0,0,4.452,1.536,13.379,13.379,0,0,0,2.424-.247,16.287,16.287,0,0,0,2.6-.71v2a12.532,12.532,0,0,1-4.942.946,8.635,8.635,0,0,1-6.169-2.08,7.561,7.561,0,0,1-2.211-5.785,9.706,9.706,0,0,1,1.13-4.667,8.17,8.17,0,0,1,3.218-3.29,9.507,9.507,0,0,1,4.8-1.194,8.767,8.767,0,0,1,4.088.937,6.624,6.624,0,0,1,2.779,2.663A7.994,7.994,0,0,1,412.892,413.061Zm-10.656,1.3c0,1.461.6,2.2,1.789,2.2a1.669,1.669,0,0,0,1.427-.662,4.2,4.2,0,0,0,.594-2.149l.136-2.3a5.745,5.745,0,0,0-1.2-.116,2.58,2.58,0,0,0-2.024.811A3.213,3.213,0,0,0,402.235,414.364Z" transform="translate(-395.897 -405.473)"/>
    </g>
  </g>
  <g id="Group_28" data-name="Group 28" transform="translate(75.344)">
    <path id="Path_101" data-name="Path 101" class="cls-8" d="M229,0H128.037a14.848,14.848,0,0,0,0,29.7h7.425l7.174,7.174,7.178-7.174H229A14.848,14.848,0,1,0,229,0Z" transform="translate(-113.189)"/>
    <path id="Path_102" data-name="Path 102" class="cls-16" d="M209.565,27.747H143.129a1.661,1.661,0,0,1-1.661-1.661h0a1.661,1.661,0,0,1,1.661-1.66h66.437a1.663,1.663,0,0,1,1.661,1.66h0A1.663,1.663,0,0,1,209.565,27.747Z" transform="translate(-122.644 -8.167)"/>
    <path id="Path_103" data-name="Path 103" class="cls-16" d="M188.8,14.025H143.129a1.661,1.661,0,0,1-1.661-1.66h0a1.661,1.661,0,0,1,1.661-1.661H188.8a1.661,1.661,0,0,1,1.661,1.661h0A1.661,1.661,0,0,1,188.8,14.025Z" transform="translate(-122.644 -3.579)"/>
  </g>
  <g id="Group_32" data-name="Group 32" transform="translate(300.984 150.994)">
    <path id="Path_104" data-name="Path 104" class="cls-13" d="M493.51,281.393s-1.234,3.666-1.916,5.881c0,0,6.052-.127,8.184-2.938l-2.26-5.414Z" transform="translate(-465.348 -244.251)"/>
    <g id="Group_29" data-name="Group 29" transform="translate(22.217 137.892)">
      <path id="Path_105" data-name="Path 105" class="cls-27" d="M493.11,434.323l.516,2.3,3.341.188-.706-2.823Z" transform="translate(-488.071 -433.991)"/>
      <path id="Path_106" data-name="Path 106" class="cls-14" d="M491.1,437.949s-5.6,2.919-5.554,3.107,9.462-.8,9.462-.8l-.567-2.12Z" transform="translate(-485.541 -435.314)"/>
    </g>
    <g id="Group_30" data-name="Group 30" transform="translate(52.746 132.136)">
      <path id="Path_107" data-name="Path 107" class="cls-27" d="M535.538,426.783l1.314,1.964,3.185-1.026-1.676-2.379Z" transform="translate(-532.786 -425.343)"/>
      <path id="Path_108" data-name="Path 108" class="cls-14" d="M535.47,429.943s-4.176,4.739-4.064,4.9,8.54-4.152,8.54-4.152l-1.29-1.773Z" transform="translate(-531.404 -426.538)"/>
    </g>
    <path id="Path_109" data-name="Path 109" class="cls-19" d="M482.274,342.771s-9.6,31.352,5.649,61.569h4.519s-9.039-34.175,2.26-61.849Z" transform="translate(-461.234 -265.506)"/>
    <path id="Path_110" data-name="Path 110" class="cls-19" d="M496.3,342.349s1.489,32.753,26.006,56.093l4.256-1.521s-19.994-29.149-18.652-59.011Z" transform="translate(-466.92 -263.974)"/>
    <g id="Group_31" data-name="Group 31">
      <path id="Path_111" data-name="Path 111" class="cls-27" d="M487.178,231.413l.012-1.932a1.074,1.074,0,0,0-.032-.251l-.367-1.382-1.1.28-1.126-1.038a.954.954,0,0,0-1.51.292,10.606,10.606,0,0,0-.866,2.4.936.936,0,0,0,.239.794l1.721,1.88a.953.953,0,0,0,.974.272l1.369-.407A.953.953,0,0,0,487.178,231.413Z" transform="translate(-462.198 -226.837)"/>
      <path id="Path_112" data-name="Path 112" class="cls-28" d="M504.276,276.225s-12.524-13.422-13.35-18.449-2.655-23.71-2.655-23.71l-3.865.746s-1.325,26.729-.152,29.807,8.7,18.768,13.606,20.213S506.212,281.446,504.276,276.225Z" transform="translate(-462.731 -229.254)"/>
      <path id="Path_113" data-name="Path 113" class="cls-27" d="M487.62,261.633s-2.822,9.4-1.034,11.769,8.377.224,10.935-3.569,3.07-12.32-1.281-13.031S488.647,257.845,487.62,261.633Z" transform="translate(-463.475 -236.804)"/>
      <path id="Path_114" data-name="Path 114" class="cls-28" d="M502.32,326.7s2.539-27.111,2.539-34.454c0-.335,0-.651-.008-.966-1.892-4.775-6.584-4.684-8.464-4.307s-9.226,2.731-9.177,3.014l-.02-.025a18.112,18.112,0,0,0-4.64,4.544,43.758,43.758,0,0,0-.846,31.065Z" transform="translate(-461.227 -246.889)"/>
      <path id="Path_115" data-name="Path 115" class="cls-27" d="M457.363,233.81l-.328-1.9a.977.977,0,0,0-.076-.24l-.606-1.3-1.034.471-1.29-.826a.955.955,0,0,0-1.437.55,10.575,10.575,0,0,0-.427,2.52.934.934,0,0,0,.375.738l2.02,1.549a.955.955,0,0,0,1.01.1l1.278-.638A.956.956,0,0,0,457.363,233.81Z" transform="translate(-452.165 -227.848)"/>
      <path id="Path_116" data-name="Path 116" class="cls-28" d="M482.178,274.687S467.49,263.675,465.8,258.873,459.018,236,459.018,236l-3.669,1.413s3.39,26.545,5.082,29.372,11.861,16.944,16.943,17.511S485,279.489,482.178,274.687Z" transform="translate(-453.229 -229.899)"/>
      <path id="Path_117" data-name="Path 117" class="cls-14" d="M497.353,256.394s-7.534-3.2-11.111,3.389c-1.88,4.144,4.144.188,5.275,1.5s-1.506,3.957-.755,4.9,2.071-1.7,2.826-.192-1.13,1.7-2.452,3.389,1.13,4.144-.751,5.649-7.154,2.635-3.956,10.732-5.27,10.169-1.693,21.275,27.867,17.322,32.386,4.144-10.544-16.38-9.605-22.217,4.331-7.341-.188-13.179-7.341-9.226-6.024-12.992S499.045,256.394,497.353,256.394Z" transform="translate(-462.755 -236.46)"/>
    </g>
  </g>
  <path id="Path_118" data-name="Path 118" class="cls-29" d="M526.861,188.4a16.189,16.189,0,1,0,16.193,16.189A16.188,16.188,0,0,0,526.861,188.4Zm-8.184,14.931a1.979,1.979,0,1,1,1.98,1.977A1.979,1.979,0,0,1,518.676,203.33Zm8.184,10.093a5.145,5.145,0,0,1-5.1-4.448h10.2A5.146,5.146,0,0,1,526.861,213.423Zm6.208-8.116a1.978,1.978,0,1,1,1.976-1.977A1.98,1.98,0,0,1,533.069,205.307Z" transform="translate(-170.743 -62.991)"/>
  <path id="Path_119" data-name="Path 119" class="cls-9" d="M173.23,365.067l-.947-1.9,25.663-12.832,32.378.527,35.156-13.238h26.853L321,328.07l.232.023,22.992,2.615,12.96-6.739.978,1.88-13.53,7.035-.324-.036-23.08-2.624L292.5,339.744H265.677L230.7,352.994l-.2,0-32.062-.523Z" transform="translate(-57.603 -108.319)"/>
  <g id="Group_39" data-name="Group 39" transform="translate(191.453 106.205)">
    <path id="Path_120" data-name="Path 120" class="cls-14" d="M315.214,306.248s25.432,41.193,22.253,69.85l17.307.359-7.418-4.3,2.12-.358s-6.36-44.416-12.365-60.177c-6.288-16.508-8.124-10.388-8.124-10.388Z" transform="translate(-296.845 -206.551)"/>
    <path id="Path_121" data-name="Path 121" class="cls-14" d="M296.8,304.77s1.412,28.613-.708,39.565-8.476,32.5-8.476,32.5l16.249.351-4.268-3.01-2.711-1.581s11.57-31.084,12.627-45.92a195.134,195.134,0,0,1,2.827-23.315Z" transform="translate(-287.618 -207.632)"/>
    <g id="Group_38" data-name="Group 38" transform="translate(5.45)">
      <path id="Path_122" data-name="Path 122" class="cls-13" d="M350.5,172l2.651-1.857,1.19-4.371-1.322-.264-.794,1.589.794-7.55-1.325.264-1.325,7.286-1.589,3.445,1.457.927" transform="translate(-313.516 -159.55)"/>
      <path id="Path_123" data-name="Path 123" class="cls-13" d="M374.909,186.513l.355-3.178,3.884-3.884.883,1.236-1.414,1.591,7.422-1.769v1.59l-6.891,2.649-1.413,2.472Z" transform="translate(-322.253 -166.204)"/>
      <g id="Group_37" data-name="Group 37" transform="translate(0 9.777)">
        <g id="Group_36" data-name="Group 36">
          <g id="Group_35" data-name="Group 35">
            <path id="Path_124" data-name="Path 124" class="cls-17" d="M330.95,174.238s-30.166,36.61-33.679,43.932c0,0-1.466,2.635-1.466,10.248s2.635,35.733,2.635,35.733l30.754,1.756s-9.961-34.266-10.252-35.144-5.27-6.149-9.957-7.322l25.771-46.565Z" transform="translate(-295.805 -174.238)"/>
            <g id="Group_34" data-name="Group 34" transform="translate(7.912 27.766)">
              <path id="Path_125" data-name="Path 125" class="cls-13" d="M316.642,241.552s1.281,3.8,1.988,6.1c0,0-6.276-.131-8.484-3.05l2.343-5.613Z" transform="translate(-308.512 -223.654)"/>
              <g id="Group_33" data-name="Group 33">
                <path id="Path_126" data-name="Path 126" class="cls-13" d="M320.6,221.968s1.857,10.816,0,13.271-8.22-1.721-10.875-5.653-3.182-12.775,1.33-13.515A8.341,8.341,0,0,1,320.6,221.968Z" transform="translate(-307.691 -215.951)"/>
              </g>
            </g>
            <path id="Path_127" data-name="Path 127" class="cls-17" d="M322.174,232.624s24.185-15.211,26.134-18.333,7.414-26.33,7.414-26.33l4.679,1.17s-2.731,25.942-3.509,28.673-24.577,28.082-30.038,28.082S319.443,238.867,322.174,232.624Z" transform="translate(-304.212 -178.826)"/>
          </g>
        </g>
      </g>
    </g>
    <path id="Path_128" data-name="Path 128" class="cls-14" d="M317.992,217.373s1.238-4.24-1.413-6.36-7.242-1.764-7.949-1.058c0,1.233,2.826,1.94,2.12,2.647s-4.415,0-5.3,3.708.351,4.415.351,4.415-1.94,2.3.355,5.478,7.487,5.8,8.776,5.458.586-5.283.586-5.283-3-.355-3.181-2.3,1.413-2.12,2.12-1.413.882,2.3,1.413,1.94-.176-4.06-.176-4.06A7.436,7.436,0,0,0,317.992,217.373Z" transform="translate(-293.442 -176.22)"/>
  </g>
  <g id="Group_41" data-name="Group 41" transform="translate(205.153 255.233)">
    <path id="Path_129" data-name="Path 129" class="cls-8" d="M333.285,383.768,315.12,388.75a9.441,9.441,0,0,0-6.587,11.57l3.433,12.528a9.448,9.448,0,0,0,11.574,6.592l5.446-1.5,5.362,5.3,1.908-7.294,5.446-1.493a9.447,9.447,0,0,0,6.591-11.574l-3.437-12.524A9.442,9.442,0,0,0,333.285,383.768Z" transform="translate(-308.199 -383.433)"/>
    <g id="Group_40" data-name="Group 40" transform="translate(8.975 14.305)">
      <path id="Path_130" data-name="Path 130" class="cls-16" d="M325.773,414a2.083,2.083,0,1,1-2.559-1.461A2.08,2.08,0,0,1,325.773,414Z" transform="translate(-321.682 -407.446)"/>
      <path id="Path_131" data-name="Path 131" class="cls-16" d="M339.525,410.231a2.082,2.082,0,1,1-2.559-1.461A2.081,2.081,0,0,1,339.525,410.231Z" transform="translate(-326.28 -406.184)"/>
      <path id="Path_132" data-name="Path 132" class="cls-16" d="M353.276,406.459A2.084,2.084,0,1,1,350.717,405,2.081,2.081,0,0,1,353.276,406.459Z" transform="translate(-330.876 -404.923)"/>
    </g>
  </g>
  <path id="Path_133" data-name="Path 133" class="cls-19" d="M212.606,362.7a3.356,3.356,0,1,1-3.354-3.354A3.354,3.354,0,0,1,212.606,362.7Z" transform="translate(-68.841 -120.146)"/>
  <path id="Path_134" data-name="Path 134" class="cls-28" d="M397.808,330.329a3.356,3.356,0,1,1-3.354-3.354A3.354,3.354,0,0,1,397.808,330.329Z" transform="translate(-130.762 -109.324)"/>
</svg>
