<?xml version="1.0" encoding="UTF-8"?> <!-- Generator: Adobe Illustrator 16.0.0, SVG Export Plug-In . SVG Version: 6.00 Build 0) --> <svg xmlns="http://www.w3.org/2000/svg" xmlns:xlink="http://www.w3.org/1999/xlink" x="0px" y="0px" width="540.017px" height="264.444px" viewBox="0 0 540.017 264.444" xml:space="preserve"> <g id="Warstwa_1"> </g> <g id="Warstwa_1_1_"> </g> <g id="Warstwa_1_2_"> <g> <path fill-rule="evenodd" clip-rule="evenodd" fill="#EF7C00" d="M84.956,159.023l-25.229,24.64 c-2.896,2.759-5.982,4.141-9.266,4.141c-3.684,0-6.868-1.381-9.561-4.141s-4.042-5.947-4.042-9.624 c0-3.287,1.482-6.373,4.407-9.234l14.088-14.091c-1.708-0.232-3.416-0.362-5.125-0.362c-6.537,0-12.119,2.299-16.724,6.9 c-4.598,4.598-6.896,10.183-6.896,16.752c0,6.573,2.299,12.19,6.896,16.854c4.604,4.665,10.187,6.999,16.759,6.999h17.54 c3.943,0,7.128,1.212,9.561,3.645c2.433,2.432,3.648,5.617,3.648,9.561c0,3.94-1.216,7.16-3.648,9.659 c-2.433,2.496-5.617,3.744-9.561,3.744h-17.54c-14.193,0-26.116-4.861-35.774-14.587C4.829,200.156,0,188.198,0,174.004 c0-14.19,4.829-26.116,14.489-35.775c9.658-9.655,21.581-14.485,35.774-14.485c14.32,0,26.475,5.125,36.465,15.375 c2.629,2.759,3.943,5.778,3.943,9.065C90.672,152.521,88.767,156.134,84.956,159.023z"></path> <path fill-rule="evenodd" clip-rule="evenodd" fill="#EF7C00" d="M171.733,0c6.404,1.849,7.149,13.276,7.052,17.301 C208.148,82.95,216.676,3.237,310.49,1.958c25.596,21.582,64.401,4.991,101.934,14.475c29.751,5.729,37.188,28.949,68.457,22.619 c-78.517,65.417-114.692-21.234-145.357-6.938c-18.397,27.645-21.314,33.272-21.413,46.745 c-14.664,4.629-24.583-1.778-26.235-0.903c-4.274-0.176-6.067,12.028-13.877,12.06c-3.775-0.938-6.791-2.07-8.141-3.617 c1.497-3.845,4.337-7.715,16.583-11.761c4.654-1.972,11.318-3.269,19.002-4.225c-1.792-2.945-3.135-7.504-4.225-12.967 c-0.338-3.093,0.583-4.629,2.756-4.601c14.446-1.276,21.02-9.564,18.959-25.554c-8.703,2.116-13.849,17.817-24.084,22.805 c-23.072,1.164-38.173,22.457-41.962,23.937c-0.422,0.151-0.829,0.302-1.223,0.46c-2.362-1.543-4.718-4.963-7.459-11.09 c0.049-1.888-0.295-7.237-3.304-8.099c0.484,10.225-6.672-0.689-11.402,0.352c1.166,2.401,1.778,4.826,1.673,7.504 c-1.02,0.675-1.877,2.025-2.896,2.689c0.119,8.587-9.364,4.443-14.067,8.784l0.992,2.028l2.369,1.93 c17.807,0.334,19.732,4.324,23.563,8.091c0.661,6.158,26.657,22.598,31.6,23.698l3.923-0.903 c3.719,0.703,7.438,1.406,11.156,2.109c-0.196,1.986-1.005,3.645-2.713,4.826c-3.192,1.733-6.904,2.359-11.459,1.206 c-28.316-3.333-58.693-32.468-86.194-41.775c-19.458-9.037-12.464-25.083-65.582-26.088l-5.054-4.127l-2.116-4.337 c10.053-9.262,30.306-0.415,30.038-18.755c2.18-1.431,4.028-4.32,6.201-5.75c0.231-5.723-1.076-10.914-3.593-16.032 C157.47-1.473,172.753,21.853,171.733,0z"></path> <path fill-rule="evenodd" clip-rule="evenodd" d="M123.558,132.184l16.134,41.722l16.127-41.722 c2.235-5.782,6.242-8.671,12.021-8.671c3.719,0,6.932,1.248,9.694,3.743c2.756,2.499,4.141,5.585,4.141,9.266 c0,1.708-0.33,3.417-0.983,5.125l-28.584,73.916c-2.763,7.097-6.896,10.644-12.415,10.644s-9.666-3.547-12.422-10.644 l-28.576-73.916c-0.661-1.708-0.991-3.417-0.991-5.125c0-3.68,1.378-6.767,4.141-9.266c2.763-2.496,5.982-3.743,9.658-3.743 C117.315,123.512,121.322,126.401,123.558,132.184L123.558,132.184z M239.425,123.709c14.193,0,26.151,4.83,35.874,14.485 c9.722,9.659,14.587,21.585,14.587,35.775c0,14.193-4.865,26.151-14.587,35.877c-9.723,9.723-21.681,14.584-35.874,14.584 s-26.116-4.861-35.775-14.584c-9.659-9.726-14.488-21.684-14.488-35.877c0-14.19,4.829-26.116,14.488-35.775 C213.309,128.539,225.231,123.709,239.425,123.709L239.425,123.709z M239.425,150.317c-6.566,0-12.154,2.299-16.752,6.9 c-4.598,4.598-6.896,10.183-6.896,16.752c0,6.573,2.299,12.19,6.896,16.854c4.598,4.665,10.186,6.999,16.752,6.999 c6.573,0,12.189-2.334,16.851-6.999c4.668-4.664,7.002-10.281,7.002-16.854c0-6.569-2.334-12.155-7.002-16.752 C251.614,152.616,245.998,150.317,239.425,150.317L239.425,150.317z M327.334,96.9v113.93c0,3.944-1.244,7.128-3.74,9.561 c-2.503,2.429-5.722,3.645-9.659,3.645c-3.943,0-7.128-1.216-9.561-3.645c-2.433-2.432-3.648-5.617-3.648-9.561V96.9 c0-3.94,1.216-7.128,3.648-9.561c2.433-2.429,5.617-3.645,9.561-3.645C322.87,83.695,327.334,88.095,327.334,96.9L327.334,96.9z M388.241,197.822c6.572,0,12.189-2.334,16.857-6.999c4.661-4.664,6.995-10.281,6.995-16.854c0-6.569-2.334-12.155-6.995-16.752 c-4.668-4.601-10.285-6.9-16.857-6.9c-6.566,0-12.155,2.299-16.753,6.9c-4.597,4.598-6.896,10.183-6.896,16.752v77.072 c0,3.94-1.252,7.16-3.747,9.659c-2.496,2.496-5.716,3.744-9.659,3.744c-3.944,0-7.129-1.248-9.561-3.744 c-2.433-2.499-3.642-5.719-3.642-9.659v-77.072c0-14.19,4.822-26.116,14.481-35.775c9.659-9.655,21.582-14.485,35.775-14.485 s26.151,4.83,35.873,14.485c9.729,9.659,14.588,21.585,14.588,35.775c0,14.193-4.858,26.151-14.588,35.877 c-9.722,9.723-21.68,14.584-35.873,14.584c-3.944,0-7.129-1.248-9.561-3.744c-2.426-2.499-3.642-5.719-3.642-9.659 c0-3.94,1.216-7.128,3.642-9.561C381.112,199.034,384.297,197.822,388.241,197.822L388.241,197.822z M534.302,158.992 l-25.23,24.636c-2.89,2.759-5.982,4.141-9.266,4.141c-3.677,0-6.868-1.381-9.561-4.141s-4.042-5.947-4.042-9.624 c0-3.287,1.483-6.373,4.407-9.23l14.095-14.095c-1.715-0.229-3.416-0.362-5.132-0.362c-6.537,0-12.119,2.299-16.717,6.9 c-4.598,4.598-6.903,10.183-6.903,16.752c0,6.573,2.306,12.19,6.903,16.854c4.598,4.665,10.18,6.999,16.752,6.999h17.54 c3.943,0,7.128,1.212,9.561,3.645c2.433,2.432,3.648,5.621,3.648,9.561c0,3.94-1.216,7.16-3.648,9.659 c-2.433,2.496-5.617,3.744-9.561,3.744h-17.54c-14.193,0-26.115-4.861-35.774-14.584c-9.659-9.726-14.489-21.684-14.489-35.877 c0-14.19,4.83-26.116,14.489-35.775c9.659-9.655,21.581-14.485,35.774-14.485c14.327,0,26.482,5.125,36.465,15.375 c2.629,2.759,3.943,5.782,3.943,9.065C540.017,152.486,538.111,156.099,534.302,158.992z"></path> </g> </g> <g id="Warstwa_1_3_"> </g> <g id="Warstwa_1_4_"> </g> <g id="Warstwa_1_5_"> </g> <g id="Warstwa_1_6_"> </g> <g id="Warstwa_1_7_"> </g> </svg> 