<svg xmlns="http://www.w3.org/2000/svg" width="63.745" height="63.757" viewBox="0 0 63.745 63.757">
  <defs>
    <style>
      .cls-1 {
        fill: #63c29a;
      }
    </style>
  </defs>
  <path id="globe-solid" class="cls-1" d="M43.255,20.31C41.391,8.831,36.995.771,31.879.771S22.366,8.831,20.5,20.31ZM19.539,32.65a80.57,80.57,0,0,0,.424,8.227H43.782a80.57,80.57,0,0,0,.424-8.227,80.572,80.572,0,0,0-.424-8.227H19.963A80.57,80.57,0,0,0,19.539,32.65ZM61.276,20.31a31.946,31.946,0,0,0-20.31-18.2C44.1,6.453,46.263,13,47.394,20.31Zm-38.5-18.2a31.925,31.925,0,0,0-20.3,18.2H16.364C17.482,13,19.641,6.453,22.778,2.108ZM62.652,24.423H47.908c.27,2.7.424,5.463.424,8.227s-.154,5.527-.424,8.227H62.639a31.6,31.6,0,0,0,1.105-8.227,32.156,32.156,0,0,0-1.093-8.227ZM15.425,32.65c0-2.764.154-5.527.424-8.227H1.105a31.164,31.164,0,0,0,0,16.454H15.837C15.579,38.177,15.425,35.414,15.425,32.65ZM20.5,44.99c1.864,11.479,6.26,19.539,11.376,19.539s9.512-8.06,11.376-19.539Zm20.477,18.2a31.976,31.976,0,0,0,20.31-18.2H47.407C46.276,52.3,44.116,58.847,40.98,63.192Zm-38.5-18.2a31.946,31.946,0,0,0,20.31,18.2c-3.136-4.345-5.3-10.888-6.427-18.2H2.481Z" transform="translate(0 -0.771)"/>
</svg>
