<?xml version="1.0" encoding="utf-8"?>
<!-- Generator: Adobe Illustrator 16.0.0, SVG Export Plug-In . SVG Version: 6.00 Build 0)  -->
<!DOCTYPE svg PUBLIC "-//W3C//DTD SVG 1.1//EN" "http://www.w3.org/Graphics/SVG/1.1/DTD/svg11.dtd">
<svg version="1.1" id="Layer_1" xmlns="http://www.w3.org/2000/svg" xmlns:xlink="http://www.w3.org/1999/xlink" x="0px" y="0px"
	 width="360.799px" height="74.453px" viewBox="0 0 360.799 74.453" enable-background="new 0 0 360.799 74.453"
	 xml:space="preserve">
<path fill="#616265" d="M347.64,74.453V41.634c0-2.322-1.315-3.484-3.948-3.484c-2.528,0-3.793,1.265-3.793,3.794v32.508h-13.236
	V41.169c0-1.852-2.045-3.019-3.716-3.019c-2.58,0-3.87,1.162-3.87,3.484v32.818H305.84V40.257c0-1.91,0.451-3.562,1.354-4.955
	c0.903-1.395,2.129-2.543,3.677-3.446s3.328-1.574,5.341-2.013s4.129-0.658,6.348-0.658c4.438,0,8.024,1.032,10.76,3.097
	c2.993-2.064,6.657-3.097,10.991-3.097c2.22,0,4.322,0.22,6.31,0.658c1.986,0.438,3.729,1.109,5.225,2.013s2.696,2.052,3.6,3.446
	c0.902,1.393,1.354,3.045,1.354,4.955v34.195H347.64z"/>
<path fill="#616265" d="M263.916,48.138v-1.494v-5.613c0-2.226,0.438-4.108,1.316-5.645c0.877-1.536,2.077-2.756,3.6-3.656
	c1.521-0.901,3.328-1.551,5.418-1.948s4.349-0.596,6.773-0.596c2.374,0,4.541,0.198,6.502,0.596s3.651,1.061,5.07,1.988
	c1.419,0.927,2.516,2.146,3.29,3.656c0.774,1.511,1.161,3.405,1.161,5.685v7.027h-12.153v-6.17c0-2.385-1.29-3.578-3.87-3.578
	s-3.87,1.193-3.87,3.578v4.676v1.494v14.734c0,2.385,1.29,3.578,3.87,3.578s3.87-1.193,3.87-3.578v-7.199h12.153v8.064
	c0,2.279-0.387,4.174-1.161,5.684c-0.774,1.512-1.871,2.73-3.29,3.658s-3.109,1.59-5.07,1.986c-1.961,0.398-4.128,0.598-6.502,0.598
	c-2.425,0-4.684-0.199-6.773-0.598c-2.09-0.396-3.896-1.047-5.418-1.947c-1.522-0.9-2.723-2.119-3.6-3.656s-1.316-3.418-1.316-5.645
	V48.138z"/>
<polygon fill="#616265" points="241.832,74.453 241.832,54.984 234.4,54.984 234.4,74.453 221.241,74.453 221.241,30.812 
	234.4,30.812 234.4,47.646 241.832,47.646 241.832,30.812 254.913,30.812 254.913,74.453 "/>
<polygon fill="#009A77" points="191.698,74.453 191.698,38.15 181.094,38.15 181.094,30.812 215.385,30.812 215.385,38.15 
	204.857,38.15 204.857,74.453 "/>
<path fill="#009A77" d="M163.044,74.453V41.634c0-2.322-1.29-3.484-3.87-3.484s-3.87,1.162-3.87,3.484v32.818h-13.236v-33.73
	c0-2.168,0.438-4,1.315-5.498s2.077-2.685,3.6-3.562c1.521-0.878,3.328-1.51,5.418-1.896c2.091-0.388,4.349-0.581,6.773-0.581
	c2.374,0,4.593,0.193,6.657,0.581c2.064,0.387,3.857,1.031,5.379,1.935c1.523,0.904,2.723,2.091,3.601,3.563
	c0.877,1.471,1.315,3.316,1.315,5.537v33.652H163.044z"/>
<rect x="118.555" y="30.812" fill="#009A77" width="13.16" height="43.641"/>
<path fill="#009A77" d="M96.18,74.453V41.634c0-2.322-1.315-3.484-3.947-3.484c-2.528,0-3.793,1.265-3.793,3.794v32.508H75.203
	V41.169c0-1.852-2.046-3.019-3.716-3.019c-2.58,0-3.87,1.162-3.87,3.484v32.818H54.38V40.257c0-1.91,0.452-3.562,1.355-4.955
	c0.902-1.395,2.128-2.543,3.676-3.446c1.549-0.903,3.329-1.574,5.342-2.013s4.128-0.658,6.348-0.658
	c4.438,0,8.024,1.032,10.759,3.097c2.993-2.064,6.657-3.097,10.992-3.097c2.219,0,4.322,0.22,6.309,0.658
	c1.987,0.438,3.729,1.109,5.225,2.013c1.497,0.903,2.697,2.052,3.6,3.446c0.903,1.393,1.354,3.045,1.354,4.955v34.195H96.18z"/>
<linearGradient id="SVGID_1_" gradientUnits="userSpaceOnUse" x1="22.5571" y1="14.292" x2="22.5571" y2="74.4541">
	<stop  offset="0" style="stop-color:#63C29A"/>
	<stop  offset="1" style="stop-color:#009976"/>
</linearGradient>
<path fill-rule="evenodd" clip-rule="evenodd" fill="url(#SVGID_1_)" d="M45.114,74.453V58.841c0-11.662-9.643-21.292-22.822-22.018
	C14.546,35.056,5.806,24.254,7.559,14.292C-10.029,55.511,3.313,74.621,45.114,74.453"/>
<path fill-rule="evenodd" clip-rule="evenodd" fill="#65C29B" d="M30.076,29.334c8.248,0,14.936,6.688,14.936,14.935
	c0,0.287-0.009,0.57-0.025,0.852h0.018v11.582c-1.097-10.682-10.348-19.198-22.712-19.879c-1.338-0.306-2.705-0.881-4.044-1.674
	C20.98,31.612,25.262,29.334,30.076,29.334"/>
<path fill-rule="evenodd" clip-rule="evenodd" fill="#616265" d="M45.004,54.23v1.898l-0.074-0.047
	c-1.385-10.389-10.514-18.59-22.638-19.258c-1.338-0.306-2.705-0.881-4.044-1.674c1.11-1.437,2.476-2.666,4.028-3.619
	C30.116,34.646,43.617,38.328,45.004,54.23"/>
<path fill-rule="evenodd" clip-rule="evenodd" fill="#65C29B" d="M30.073,0c-6.396,0-11.58,5.185-11.58,11.58
	c0,6.396,5.185,11.581,11.58,11.581s11.58-5.185,11.58-11.581C41.653,5.185,36.469,0,30.073,0"/>
</svg>
