<?xml version="1.0" encoding="utf-8"?>
<!-- Generator: Adobe Illustrator 16.0.0, SVG Export Plug-In . SVG Version: 6.00 Build 0)  -->
<!DOCTYPE svg PUBLIC "-//W3C//DTD SVG 1.1//EN" "http://www.w3.org/Graphics/SVG/1.1/DTD/svg11.dtd">
<svg version="1.1" id="Layer_1" xmlns="http://www.w3.org/2000/svg" xmlns:xlink="http://www.w3.org/1999/xlink" x="0px" y="0px"
	 width="360.799px" height="74.453px" viewBox="0 0 360.799 74.453" enable-background="new 0 0 360.799 74.453"
	 xml:space="preserve">
<path fill="#FFFFFF" d="M263.916,48.138v-1.494v-5.613c0-2.226,0.438-4.108,1.316-5.645c0.877-1.536,2.077-2.756,3.6-3.656
	c1.521-0.901,3.328-1.551,5.418-1.948s4.349-0.596,6.773-0.596c2.374,0,4.541,0.198,6.502,0.596s3.651,1.061,5.07,1.988
	c1.419,0.927,2.516,2.146,3.29,3.656c0.774,1.511,1.161,3.405,1.161,5.685v7.027h-12.153v-6.17c0-2.385-1.29-3.578-3.87-3.578
	s-3.87,1.193-3.87,3.578v4.676v1.494v14.734c0,2.385,1.29,3.578,3.87,3.578s3.87-1.193,3.87-3.578v-7.199h12.153v8.064
	c0,2.279-0.387,4.174-1.161,5.684c-0.774,1.512-1.871,2.73-3.29,3.658s-3.109,1.59-5.07,1.986c-1.961,0.398-4.128,0.598-6.502,0.598
	c-2.425,0-4.684-0.199-6.773-0.598c-2.09-0.396-3.896-1.047-5.418-1.947c-1.522-0.9-2.723-2.119-3.6-3.656s-1.316-3.418-1.316-5.645
	V48.138z M241.832,74.453V54.984H234.4v19.469h-13.159V30.812H234.4v16.834h7.432V30.812h13.081v43.641H241.832z M191.698,74.453
	V38.15h-10.604v-7.339h34.291v7.339h-10.527v36.302H191.698z M163.044,74.453V41.634c0-2.322-1.29-3.484-3.87-3.484
	s-3.87,1.162-3.87,3.484v32.818h-13.236v-33.73c0-2.168,0.438-4,1.315-5.498s2.077-2.685,3.6-3.562
	c1.521-0.878,3.328-1.51,5.418-1.896c2.091-0.388,4.349-0.581,6.773-0.581c2.374,0,4.593,0.193,6.657,0.581
	c2.064,0.387,3.857,1.031,5.379,1.935c1.523,0.904,2.723,2.091,3.601,3.563c0.877,1.471,1.315,3.316,1.315,5.537v33.652H163.044z
	 M118.555,74.453V30.812h13.16v43.641H118.555z M96.18,74.453V41.634c0-2.322-1.315-3.484-3.947-3.484
	c-2.528,0-3.793,1.265-3.793,3.794v32.508H75.203V41.169c0-1.852-2.046-3.019-3.716-3.019c-2.58,0-3.87,1.162-3.87,3.484v32.818
	H54.38V40.257c0-1.91,0.452-3.562,1.355-4.955c0.902-1.395,2.128-2.543,3.676-3.446c1.549-0.903,3.329-1.574,5.342-2.013
	s4.128-0.658,6.348-0.658c4.438,0,8.024,1.032,10.759,3.097c2.993-2.064,6.657-3.097,10.992-3.097c2.219,0,4.322,0.22,6.309,0.658
	c1.987,0.438,3.729,1.109,5.225,2.013c1.497,0.903,2.697,2.052,3.6,3.446c0.903,1.393,1.354,3.045,1.354,4.955v34.195H96.18z
	 M30.076,29.334c8.248,0,14.936,6.688,14.936,14.935c0,0.287-0.009,0.57-0.025,0.852h0.018v9.109
	c-1.387-15.902-14.887-19.583-22.728-22.7C24.546,30.138,27.218,29.334,30.076,29.334z M30.073,0c-6.396,0-11.58,5.185-11.58,11.58
	c0,6.396,5.185,11.581,11.58,11.581s11.58-5.185,11.58-11.581C41.653,5.185,36.469,0,30.073,0z M45.114,74.453V58.841
	c0-11.662-9.643-21.292-22.822-22.018C14.546,35.056,5.806,24.254,7.559,14.292C-10.029,55.511,3.313,74.621,45.114,74.453z
	 M347.64,74.453V41.634c0-2.322-1.315-3.484-3.948-3.484c-2.528,0-3.793,1.265-3.793,3.794v32.508h-13.236V41.169
	c0-1.852-2.045-3.019-3.716-3.019c-2.58,0-3.87,1.162-3.87,3.484v32.818H305.84V40.257c0-1.91,0.451-3.562,1.354-4.955
	c0.903-1.395,2.129-2.543,3.677-3.446s3.328-1.574,5.341-2.013s4.129-0.658,6.348-0.658c4.438,0,8.024,1.032,10.76,3.097
	c2.993-2.064,6.657-3.097,10.991-3.097c2.22,0,4.322,0.22,6.31,0.658c1.986,0.438,3.729,1.109,5.225,2.013s2.696,2.052,3.6,3.446
	c0.902,1.393,1.354,3.045,1.354,4.955v34.195H347.64z"/>
</svg>
